<svg width="40" height="40" viewBox="0 0 40 40" fill="none" xmlns="http://www.w3.org/2000/svg">
<path fill-rule="evenodd" clip-rule="evenodd" d="M37.8167 4.12549C37.6565 3.99342 37.4284 3.96277 37.2351 4.04701L2.31139 19.2941C2.12337 19.3762 2.00229 19.5525 2.00003 19.7473C1.99777 19.942 2.11487 20.1207 2.30105 20.2066L9.2 23.1322C9.38124 23.2159 23.6 16.1751 23.6 16.1751L14.7375 25.5043C14.6492 25.5972 14.6 25.7205 14.6 25.8487V34.084C14.6 34.5317 15.1433 34.7537 15.4569 34.4342L20.882 28.9064L28.0842 32.3316C28.225 32.3948 28.3879 32.3975 28.531 32.339C28.674 32.2805 28.7829 32.1666 28.8296 32.0268L37.9752 4.65711C38.0392 4.46598 37.9769 4.25756 37.8167 4.12549Z" fill="white"/>
</svg>
