<svg width="70" height="70" viewBox="0 0 70 70" fill="none" xmlns="http://www.w3.org/2000/svg">
<g clip-path="url(#clip0_2415_18381)">
<path d="M18.3819 25.569C11.1698 38.2489 20.3779 54.1042 35 54.1042C45.5341 54.1042 54.1042 45.534 54.1042 35C54.1042 19.7791 37.1038 10.7282 24.4988 19.0381C23.961 19.3932 23.2374 19.2445 22.8826 18.7063C22.5279 18.1685 22.6765 17.4449 23.2145 17.0902C37.3599 7.76388 56.4375 17.9191 56.4375 35C56.4375 46.8207 46.8207 56.4375 35 56.4375C18.5668 56.4375 8.27458 38.6193 16.3538 24.4154C16.6724 23.8554 17.3845 23.6596 17.9446 23.9781C18.5048 24.2966 18.7005 25.009 18.3819 25.569ZM32.6667 35C32.6667 36.2865 33.7135 37.3333 35 37.3333C36.2865 37.3333 37.3333 36.2865 37.3333 35C37.3333 33.7135 36.2865 32.6667 35 32.6667C33.7135 32.6667 32.6667 33.7135 32.6667 35ZM68.8333 33.8333H65.3087C64.708 18.0336 51.9664 5.292 36.1667 4.69131V1.16667C36.1667 0.522375 35.6443 0 35 0C34.3557 0 33.8333 0.522375 33.8333 1.16667V4.69131C18.0336 5.292 5.292 18.0336 4.69131 33.8333H1.16667C0.522375 33.8333 0 34.3557 0 35C0 35.6443 0.522375 36.1667 1.16667 36.1667H4.69131C5.29215 51.9664 18.0336 64.708 33.8333 65.3087V68.8333C33.8333 69.4776 34.3557 70 35 70C35.6443 70 36.1667 69.4776 36.1667 68.8333V64.1667C36.1667 63.5224 35.6443 63 35 63C19.5608 63 7 50.4392 7 35C7 19.5608 19.5608 7 35 7C50.4392 7 63 19.5608 63 35C63 46.2787 56.2873 56.4059 45.8984 60.8001C45.305 61.0512 45.0274 61.7356 45.2785 62.329C45.5295 62.9223 46.214 63.1998 46.8074 62.9491C57.7022 58.3411 64.8645 47.9127 65.311 36.1667H68.8333C69.4776 36.1667 70 35.6443 70 35C70 34.3557 69.4776 33.8333 68.8333 33.8333ZM35 20.7083C34.3557 20.7083 33.8333 21.2307 33.8333 21.875V23.8866C28.6016 24.4319 24.4319 28.6016 23.8866 33.8333H21.875C21.2307 33.8333 20.7083 34.3557 20.7083 35C20.7083 35.6443 21.2307 36.1667 21.875 36.1667H23.8866C24.4319 41.3984 28.6016 45.5681 33.8333 46.1134V48.125C33.8333 48.7693 34.3557 49.2917 35 49.2917C35.6443 49.2917 36.1667 48.7693 36.1667 48.125V46.1132C39.0825 45.8103 41.761 44.3787 43.645 42.0809C44.0535 41.5826 43.9807 40.8476 43.4825 40.439C42.9844 40.0307 42.2492 40.1033 41.8406 40.6015C40.4023 42.3557 38.3787 43.4694 36.1667 43.7615V41.8906C36.1667 41.2463 35.6443 40.724 35 40.724C34.3557 40.724 33.8333 41.2463 33.8333 41.8906V43.7618C29.8901 43.2393 26.7607 40.1099 26.2382 36.1667H28.1094C28.7537 36.1667 29.276 35.6443 29.276 35C29.276 34.3557 28.7537 33.8333 28.1094 33.8333H26.2382C26.7607 29.8901 29.8901 26.7607 33.8333 26.2382V28.1094C33.8333 28.7537 34.3557 29.276 35 29.276C35.6443 29.276 36.1667 28.7537 36.1667 28.1094V26.2382C40.1099 26.7607 43.2393 29.8901 43.7618 33.8333H41.8906C41.2463 33.8333 40.724 34.3557 40.724 35C40.724 35.6443 41.2463 36.1667 41.8906 36.1667H48.125C48.7693 36.1667 49.2917 35.6443 49.2917 35C49.2917 34.3557 48.7693 33.8333 48.125 33.8333H46.1134C45.5681 28.6016 41.3984 24.4319 36.1667 23.8866V21.875C36.1667 21.2307 35.6443 20.7083 35 20.7083Z" fill="white"/>
</g>
<defs>
<clipPath id="clip0_2415_18381">
<rect width="70" height="70" fill="white"/>
</clipPath>
</defs>
</svg>
